Coordinates
version=1
nRows=29
nColumns=22
inDegrees=yes

Units are S.I. units (second, meters, Newtons, ...)
If the header above contains a line with 'inDegrees', this indicates whether rotational values are in degrees (yes) or radians (no).

endheader
time	pelvis_tilt	pelvis_list	pelvis_rotation	pelvis_tx	pelvis_ty	pelvis_tz	hip_flexion_r	hip_adduction_r	hip_rotation_r	knee_angle_r	ankle_angle_r	subtalar_angle_r	hip_flexion_l	hip_adduction_l	hip_rotation_l	knee_angle_l	ankle_angle_l	subtalar_angle_l	lumbar_extension	lumbar_bending	lumbar_rotation
      4.11000000	     -3.75154791	      2.62426243	     29.51923947	     -0.39032043	      0.97602401	     -0.85244444	     31.20382771	     -4.60658610	    -25.06739513	    -10.70485968	     10.16210332	      8.86999989	    -12.61369766	      1.99024685	    -17.24210530	     -9.08203795	     16.69873932	     10.34946104	     -5.47556699	     -4.09514614	     -9.50189490
      4.12000000	     -3.63860892	      2.60894673	     29.65181789	     -0.38026483	      0.97544410	     -0.85639778	     31.05755351	     -4.82783231	    -25.90127804	    -11.31813327	     10.12801825	      8.37047058	    -13.15123437	      1.68277352	    -16.90335031	     -9.50039307	     16.33047932	     11.05227775	     -5.45202716	     -3.83507534	     -9.79528798
      4.13000000	     -3.54059186	      2.60422350	     29.82211409	     -0.36994037	      0.97502121	     -0.86036867	     30.87924075	     -5.09543127	    -26.75568451	    -12.09609541	     10.02041635	      7.83447280	    -13.67256438	      1.37192350	    -16.43701018	     -9.93923444	     15.87566460	     11.66449815	     -5.40163327	     -3.59139823	    -10.11468511
      4.14000000	     -3.44545513	      2.59998251	     30.00290090	     -0.35929441	      0.97477119	     -0.86429795	     30.64349683	     -5.36507713	    -27.62258194	    -12.96349951	      9.84716476	      7.18959041	    -14.16789833	      1.03913373	    -15.92468347	    -10.43004221	     15.28619849	     12.27011879	     -5.32731119	     -3.35156014	    -10.42092255
      4.15000000	     -3.35668824	      2.59087614	     30.19361580	     -0.34832009	      0.97469264	     -0.86816649	     30.35837297	     -5.63252189	    -28.54437576	    -13.89016589	      9.59614493	      6.47953732	    -14.63357600	      0.68411354	    -15.35464271	    -10.96141860	     14.57363249	     12.81848444	     -5.22176361	     -3.11856881	    -10.72424795
      4.16000000	     -3.26102674	      2.55812127	     30.37688765	     -0.33699639	      0.97480724	     -0.87195220	     30.00828173	     -5.85625328	    -29.54384270	    -14.80203121	      9.24576735	      5.65401985	    -15.06180628	      0.28447830	    -14.76547171	    -11.55299663	     13.71744619	     13.34684888	     -5.08432209	     -2.86445017	    -10.99569609
      4.17000000	     -3.14719582	      2.50195746	     30.55496483	     -0.32535367	      0.97513771	     -0.87565445	     29.59670415	     -6.04162524	    -30.68384846	    -15.69223094	      8.79977807	      4.77330096	    -15.45306545	     -0.16504011	    -14.17525393	    -12.21184086	     12.76136905	     13.82764280	     -4.93053329	     -2.58196458	    -11.24945155
      4.18000000	     -3.01270179	      2.39638927	     30.69859560	     -0.31338740	      0.97568803	     -0.87923102	     29.13160802	     -6.13838283	    -31.91764177	    -16.50413415	      8.25520911	      3.79405488	    -15.78427782	     -0.68294666	    -13.62706784	    -12.95580031	     11.67188906	     14.30897489	     -4.74596069	     -2.24235234	    -11.45210164
      4.19000000	     -2.85588303	      2.23737703	     30.79607598	     -0.30111114	      0.97645711	     -0.88261057	     28.62637558	     -6.12540223	    -33.18733939	    -17.22615341	      7.64374485	      2.71077363	    -16.04173131	     -1.27421355	    -13.14713343	    -13.79857005	     10.45519402	     14.80436892	     -4.53449285	     -1.85314612	    -11.59248787
      4.20000000	     -2.69035761	      2.02880237	     30.81978338	     -0.28856794	      0.97742753	     -0.88575476	     28.11005441	     -5.99072149	    -34.37364955	    -17.86210847	      7.02304073	      1.55281022	    -16.20014319	     -1.91939353	    -12.76972344	    -14.76039645	      9.09072663	     15.30866374	     -4.29054172	     -1.42001124	    -11.66008974
      4.21000000	     -2.52936409	      1.77768969	     30.76911107	     -0.27583278	      0.97857142	     -0.88860823	     27.61158843	     -5.73712614	    -35.36834599	    -18.43364905	      6.42775794	      0.38843499	    -16.22850487	     -2.60800473	    -12.49302077	    -15.87079999	      7.58840307	     15.79236534	     -4.01531009	     -0.96267946	    -11.67046578
      4.22000000	     -2.39193753	      1.49564834	     30.55999298	     -0.26287903	      0.97983848	     -0.89103145	     27.16470150	     -5.32126342	    -35.95089799	    -18.93841076	      5.92178498	     -0.87147027	    -16.13429413	     -3.29533478	    -12.37609026	    -17.10483300	      5.87746601	     16.28040113	     -3.69916491	     -0.50865896	    -11.53162367
      4.23000000	     -2.29324745	      1.20653057	     30.21464885	     -0.24982623	      0.98119808	     -0.89302643	     26.78899598	     -4.79584050	    -36.11519290	    -19.42419851	      5.53805353	     -2.04639819	    -15.89496294	     -3.96090181	    -12.38559200	    -18.49063560	      3.99221231	     16.69106264	     -3.35456118	     -0.08760046	    -11.29567145
      4.24000000	     -2.22758902	      0.92970130	     29.73499305	     -0.23674359	      0.98264584	     -0.89462345	     26.46654229	     -4.18601576	    -35.89010980	    -19.89577114	      5.30042260	     -3.10532804	    -15.52435512	     -4.59023810	    -12.49818303	    -20.03219114	      1.92806893	     16.99701511	     -3.00426067	      0.29611935	    -10.96971381
      4.25000000	     -2.17945059	      0.67605044	     29.15513204	     -0.22368295	      0.98417940	     -0.89588316	     26.16146006	     -3.52652226	    -35.41014582	    -20.35413375	      5.21780030	     -4.11963382	    -15.03816070	     -5.19119925	    -12.65618130	    -21.73287433	     -0.28204580	     17.17828925	     -2.66929409	      0.64368343	    -10.59138748
      4.26000000	     -2.13944178	      0.44429127	     28.46174856	     -0.21068598	      0.98578255	     -0.89676777	     25.84998272	     -2.80518888	    -34.67116764	    -20.76583052	      5.20669561	     -4.90319033	    -14.44405766	     -5.77143100	    -12.87812168	    -23.60184204	     -2.58322609	     17.20105891	     -2.36569751	      0.96217495	    -10.16616573
      4.27000000	     -2.08720921	      0.25013428	     27.67807758	     -0.19779785	      0.98745478	     -0.89735076	     25.49065570	     -2.05613358	    -33.77600824	    -21.12650097	      5.25602135	     -5.41641383	    -13.77001534	     -6.33113501	    -13.13463382	    -25.63901657	     -4.89626034	     17.14446061	     -2.12274351	      1.25523515	     -9.71797958
      4.28000000	     -2.02672922	      0.08980118	     26.85209506	     -0.18504439	      0.98914981	     -0.89767660	     25.07089043	     -1.30766896	    -32.86214036	    -21.42337260	      5.37061105	     -5.83330735	    -13.00074995	     -6.88077206	    -13.35861224	    -27.85262854	     -7.12075045	     16.98640824	     -1.93329865	      1.51210246	     -9.27664244
      4.29000000	     -1.95092505	     -0.03843260	     26.01054643	     -0.17249162	      0.99084327	     -0.89779480	     24.57836054	     -0.57109015	    -31.96156253	    -21.64443095	      5.52190361	     -6.13011370	    -12.13428544	     -7.42460857	    -13.52189188	    -30.24478871	     -9.14354095	     16.77486886	     -1.80698357	      1.74207699	     -8.87165551
      4.30000000	     -1.86021033	     -0.14804234	     25.18049034	     -0.16016985	      0.99249283	     -0.89773314	     24.01726540	      0.15340616	    -31.10405095	    -21.78513022	      5.70572363	     -6.33642063	    -11.16086655	     -7.97029091	    -13.57880896	    -32.80504954	    -10.86683078	     16.53923736	     -1.73549510	      1.95618928	     -8.52679868
      4.31000000	     -1.75965212	     -0.23522544	     24.39540429	     -0.14812851	      0.99408485	     -0.89755058	     23.38468249	      0.84785226	    -30.32245007	    -21.82903327	      5.91595252	     -6.48239067	    -10.07416484	     -8.50043280	    -13.48084022	    -35.50270242	    -12.19777723	     16.30657943	     -1.71585780	      2.14243198	     -8.25661681
      4.32000000	     -1.65265907	     -0.31191655	     23.65708072	     -0.13637089	      0.99557904	     -0.89726850	     22.70692718	      1.51382827	    -29.62103480	    -21.80875121	      6.13308484	     -6.60073858	     -8.87850735	     -9.00282174	    -13.20389344	    -38.28852655	    -13.10385424	     16.09150312	     -1.73852814	      2.31159078	     -8.05392673
      4.33000000	     -1.54872679	     -0.36922876	     22.97972195	     -0.12491228	      0.99697392	     -0.89695237	     21.98913775	      2.13436126	    -29.00675547	    -21.71894760	      6.37013253	     -6.72579202	     -7.58111880	     -9.44194009	    -12.73281658	    -41.09687245	    -13.57435194	     15.85718117	     -1.79229518	      2.45105671	     -7.91567050
      4.34000000	     -1.44240572	     -0.40639123	     22.35035297	     -0.11371129	      0.99826453	     -0.89661622	     21.23558534	      2.71199807	    -28.47535988	    -21.57954698	      6.65965424	     -6.86634717	     -6.21412190	     -9.80583315	    -12.11128367	    -43.85905316	    -13.64720991	     15.61409071	     -1.87607438	      2.56209973	     -7.81500806
      4.35000000	     -1.36824859	     -0.41628400	     21.76519673	     -0.10279009	      0.99943970	     -0.89626380	     20.48126780	      3.23501298	    -27.97343624	    -21.38180514	      6.89882400	     -7.04590332	     -4.76158376	    -10.06208241	    -11.36276441	    -46.52085818	    -13.33756489	     15.27927592	     -1.95682425	      2.62378187	     -7.77606618
      4.36000000	     -1.29278685	     -0.40376030	     21.18556739	     -0.09205639	      1.00053701	     -0.89586829	     19.70036614	      3.72836767	    -27.49257231	    -21.14692870	      7.18180144	     -7.24029981	     -3.29526737	    -10.23230162	    -10.57558958	    -49.02013764	    -12.73537251	     14.97322632	     -2.05824737	      2.65416768	     -7.71464446
      4.37000000	     -1.22543486	     -0.37625854	     20.59342250	     -0.08149094	      1.00155659	     -0.89538200	     18.90701318	      4.20309801	    -27.00593361	    -20.87428697	      7.45742007	     -7.43476633	     -1.81907041	    -10.33799368	     -9.81565296	    -51.33104117	    -11.89231018	     14.73338409	     -2.16241935	      2.65340414	     -7.62748816
      4.38000000	     -1.15639680	     -0.33252052	     19.96761792	     -0.07107597	      1.00252601	     -0.89477063	     18.09402137	      4.66602676	    -26.47934770	    -20.57085320	      7.71682547	     -7.60397927	     -0.36250824	    -10.39728636	     -9.13071521	    -53.42978699	    -10.87701819	     14.60279320	     -2.28004151	      2.62701508	     -7.50575829
      4.39000000	     -1.08690570	     -0.28021329	     19.29225443	     -0.06080107	      1.00344546	     -0.89398945	     17.26788796	      5.12667603	    -25.89694772	    -20.24165457	      7.94598988	     -7.73565160	      1.06743848	    -10.43245856	     -8.54628822	    -55.30567476	     -9.75842254	     14.59154196	     -2.40315160	      2.57972336	     -7.34187383
